<svg width="142" height="42" viewBox="0 0 142 42" fill="none" xmlns="http://www.w3.org/2000/svg">
<path d="M35 11.7833C32.0718 8.85154 27.7701 7 22.9749 7C14.1522 7 7 13.268 7 21C7 28.732 14.1522 35 22.9749 35C27.7701 35 32.0718 33.1485 35 30.2167" stroke="url(#paint0_linear_2_344)" stroke-width="14"/>
<path d="M57.6973 27.7197C60.7646 27.7197 62.9883 25.7949 63.2344 23.0967L63.2432 23H60.6592L60.6416 23.0879C60.2988 24.5908 59.2266 25.4697 57.6973 25.4697C55.667 25.4697 54.3662 23.8174 54.3662 21.1455V21.1367C54.3662 18.4824 55.667 16.8477 57.6973 16.8477C59.2793 16.8477 60.3164 17.7617 60.6152 19.1592L60.6504 19.3086H63.2344L63.2256 19.2295C62.9795 16.54 60.7734 14.5977 57.6973 14.5977C53.9971 14.5977 51.6592 17.0586 51.6592 21.1455V21.1543C51.6592 25.2412 53.9883 27.7197 57.6973 27.7197ZM68.9912 27.6934C71.8389 27.6934 73.6582 25.8652 73.6582 22.7891V22.7715C73.6582 19.7217 71.8037 17.8848 68.9824 17.8848C66.1699 17.8848 64.3242 19.7393 64.3242 22.7715V22.7891C64.3242 25.8564 66.126 27.6934 68.9912 27.6934ZM69 25.6807C67.7344 25.6807 66.9346 24.6348 66.9346 22.7891V22.7715C66.9346 20.9521 67.7432 19.8975 68.9824 19.8975C70.2305 19.8975 71.0479 20.9521 71.0479 22.7715V22.7891C71.0479 24.626 70.248 25.6807 69 25.6807ZM74.9854 27.5H77.5518V22.0859C77.5518 20.8555 78.2812 20.0117 79.4326 20.0117C80.584 20.0117 81.1641 20.7148 81.1641 21.9453V27.5H83.7305V21.418C83.7305 19.2119 82.5527 17.8848 80.4785 17.8848C79.0547 17.8848 78.0879 18.5439 77.6045 19.625H77.5518V18.0781H74.9854V27.5ZM85.3564 27.5H87.9229V22.0859C87.9229 20.8555 88.6523 20.0117 89.8037 20.0117C90.9551 20.0117 91.5352 20.7148 91.5352 21.9453V27.5H94.1016V21.418C94.1016 19.2119 92.9238 17.8848 90.8496 17.8848C89.4258 17.8848 88.459 18.5439 87.9756 19.625H87.9229V18.0781H85.3564V27.5ZM100.017 27.6934C102.706 27.6934 104.007 26.1025 104.297 24.7139L104.323 24.6172H101.968L101.95 24.6699C101.766 25.1973 101.124 25.7773 100.069 25.7773C98.7598 25.7773 97.9424 24.8984 97.916 23.3955H104.402V22.6045C104.402 19.7568 102.671 17.8848 99.9111 17.8848C97.1514 17.8848 95.3848 19.8008 95.3848 22.7979V22.8066C95.3848 25.8213 97.1338 27.6934 100.017 27.6934ZM99.9551 19.8008C101.019 19.8008 101.783 20.4775 101.941 21.7783H97.9424C98.1094 20.5039 98.9004 19.8008 99.9551 19.8008ZM110.036 27.6934C112.55 27.6934 114.176 26.1289 114.299 24.0723V24.0195H111.908L111.899 24.0986C111.724 25.0479 111.082 25.6807 110.054 25.6807C108.788 25.6807 107.997 24.6348 107.997 22.7891V22.7803C107.997 20.9785 108.788 19.8975 110.045 19.8975C111.108 19.8975 111.732 20.583 111.891 21.4795L111.908 21.5586H114.29V21.4971C114.193 19.458 112.567 17.8848 110.01 17.8848C107.188 17.8848 105.387 19.7568 105.387 22.7715V22.7803C105.387 25.8213 107.162 27.6934 110.036 27.6934ZM119.282 27.6934C119.818 27.6934 120.231 27.6406 120.521 27.5967V25.7158C120.363 25.7334 120.196 25.7598 119.968 25.7598C119.194 25.7598 118.799 25.4609 118.799 24.582V20.0117H120.521V18.0781H118.799V15.7754H116.206V18.0781H114.896V20.0117H116.206V24.8633C116.206 26.8848 117.19 27.6934 119.282 27.6934ZM123.272 16.8652C124.046 16.8652 124.644 16.2588 124.644 15.5293C124.644 14.7998 124.046 14.1934 123.272 14.1934C122.499 14.1934 121.901 14.7998 121.901 15.5293C121.901 16.2588 122.499 16.8652 123.272 16.8652ZM121.989 27.5H124.556V18.0781H121.989V27.5ZM126.964 27.5H129.53V20.0117H131.341V18.0781H129.469V17.4189C129.469 16.7422 129.847 16.3818 130.699 16.3818C130.937 16.3818 131.183 16.3906 131.358 16.4258V14.7295C131.06 14.668 130.541 14.624 130.066 14.624C127.843 14.624 126.964 15.4766 126.964 17.3223V18.0781H125.681V20.0117H126.964V27.5ZM134.171 30.6025C136.263 30.6025 137.528 29.8906 138.267 27.667L141.501 18.0781H138.794L136.799 25.4434H136.729L134.742 18.0781H131.921L135.252 27.5L135.138 27.8076C134.909 28.4492 134.487 28.6689 133.723 28.6689C133.345 28.6689 133.046 28.6162 132.861 28.5811V30.4883C133.16 30.541 133.67 30.6025 134.171 30.6025Z" fill="#121ADB"/>
<defs>
<linearGradient id="paint0_linear_2_344" x1="0.874999" y1="1.75" x2="57.3125" y2="53.8125" gradientUnits="userSpaceOnUse">
<stop offset="0.150331" stop-color="#121ADB"/>
<stop offset="0.525399" stop-color="#90E0EF" stop-opacity="0.5"/>
<stop offset="0.837996" stop-color="#CAF0F8" stop-opacity="0.3"/>
</linearGradient>
</defs>
</svg>
