<svg width="22" height="18" viewBox="0 0 22 18" fill="none" xmlns="http://www.w3.org/2000/svg">
<path d="M22 4.67031V14.5385C22 15.4565 21.6378 16.337 20.9932 16.9861C20.3485 17.6353 19.4742 18 18.5625 18H3.4375C2.52582 18 1.65148 17.6353 1.00682 16.9861C0.362164 16.337 0 15.4565 0 14.5385V4.67031L10.6508 10.9814C10.7566 11.0442 10.8772 11.0774 11 11.0774C11.1228 11.0774 11.2434 11.0442 11.3492 10.9814L22 4.67031ZM18.5625 4.28576e-08C19.4083 -0.000133914 20.2245 0.313763 20.8549 0.88164C21.4853 1.44952 21.8857 2.2315 21.9794 3.078L11 9.58154L0.0206251 3.078C0.114343 2.2315 0.514695 1.44952 1.14509 0.88164C1.77549 0.313763 2.59167 -0.000133914 3.4375 4.28576e-08H18.5625Z" fill="#040E33"/>
</svg>
