<svg width="22" height="22" viewBox="0 0 22 22" fill="none" xmlns="http://www.w3.org/2000/svg">
<path d="M20.0751 17.1906L19.8673 17.0072C19.2779 16.4821 18.7619 15.8798 18.3335 15.2167C17.8655 14.3016 17.585 13.3022 17.5085 12.2772V9.25836C17.5125 7.64845 16.9285 6.09248 15.8662 4.88279C14.804 3.67309 13.3365 2.89294 11.7396 2.68891V1.90058C11.7396 1.68421 11.6536 1.4767 11.5006 1.3237C11.3476 1.1707 11.1401 1.08475 10.9237 1.08475C10.7074 1.08475 10.4999 1.1707 10.3469 1.3237C10.1939 1.4767 10.1079 1.68421 10.1079 1.90058V2.70114C8.52528 2.91987 7.07555 3.70474 6.02723 4.91037C4.9789 6.116 4.40302 7.6607 4.40624 9.25836V12.2772C4.3297 13.3022 4.04921 14.3016 3.58124 15.2167C3.16011 15.8781 2.65247 16.4803 2.07179 17.0072L1.86401 17.1906V18.9139H20.0751V17.1906Z" fill="#040E33"/>
<path d="M9.3623 19.5556C9.41589 19.943 9.60784 20.2979 9.9027 20.5547C10.1976 20.8116 10.5754 20.9531 10.9665 20.9531C11.3575 20.9531 11.7354 20.8116 12.0302 20.5547C12.3251 20.2979 12.517 19.943 12.5706 19.5556H9.3623Z" fill="#040E33"/>
</svg>
