<svg width="9" height="10" viewBox="0 0 9 10" fill="none" xmlns="http://www.w3.org/2000/svg">
<path d="M5.00006 0.999985C5.00006 0.867377 4.94738 0.7402 4.85361 0.646431C4.75985 0.552663 4.63267 0.499985 4.50006 0.499985C4.36745 0.499985 4.24028 0.552663 4.14651 0.646431C4.05274 0.7402 4.00006 0.867377 4.00006 0.999985V4.49998H0.500061C0.367453 4.49998 0.240276 4.55266 0.146508 4.64643C0.0527394 4.7402 6.10352e-05 4.86738 6.10352e-05 4.99998C6.10352e-05 5.13259 0.0527394 5.25977 0.146508 5.35354C0.240276 5.44731 0.367453 5.49998 0.500061 5.49998H4.00006V8.99998C4.00006 9.13259 4.05274 9.25977 4.14651 9.35354C4.24028 9.44731 4.36745 9.49998 4.50006 9.49998C4.63267 9.49998 4.75985 9.44731 4.85361 9.35354C4.94738 9.25977 5.00006 9.13259 5.00006 8.99998V5.49998H8.50006C8.63267 5.49998 8.75985 5.44731 8.85361 5.35354C8.94738 5.25977 9.00006 5.13259 9.00006 4.99998C9.00006 4.86738 8.94738 4.7402 8.85361 4.64643C8.75985 4.55266 8.63267 4.49998 8.50006 4.49998H5.00006V0.999985Z" fill="#CC9202"/>
</svg>
