<svg width="22" height="22" viewBox="0 0 22 22" fill="none" xmlns="http://www.w3.org/2000/svg">
<path fill-rule="evenodd" clip-rule="evenodd" d="M15.8125 9.62498C15.8125 11.2656 15.1607 12.8391 14.0006 13.9992C12.8405 15.1594 11.267 15.8111 9.62636 15.8111C7.98569 15.8111 6.41223 15.1594 5.2521 13.9992C4.09198 12.8391 3.44023 11.2656 3.44023 9.62498C3.44023 7.98432 4.09198 6.41085 5.2521 5.25073C6.41223 4.09061 7.98569 3.43886 9.62636 3.43886C11.267 3.43886 12.8405 4.09061 14.0006 5.25073C15.1607 6.41085 15.8125 7.98432 15.8125 9.62498ZM14.685 16.1425C13.0272 17.4294 10.9414 18.0363 8.85196 17.8394C6.76255 17.6426 4.8267 16.6568 3.43851 15.0829C2.05032 13.509 1.31414 11.4651 1.37984 9.36751C1.44554 7.26988 2.30819 5.27614 3.79217 3.79217C5.27614 2.30819 7.26988 1.44554 9.36751 1.37984C11.4651 1.31414 13.509 2.05032 15.0829 3.43851C16.6568 4.8267 17.6426 6.76255 17.8394 8.85196C18.0363 10.9414 17.4294 13.0272 16.1425 14.685L20.3225 18.865C20.4238 18.9594 20.5051 19.0732 20.5614 19.1997C20.6178 19.3262 20.6481 19.4628 20.6505 19.6013C20.653 19.7397 20.6275 19.8773 20.5756 20.0057C20.5238 20.1341 20.4466 20.2507 20.3487 20.3487C20.2507 20.4466 20.1341 20.5238 20.0057 20.5756C19.8773 20.6275 19.7397 20.653 19.6013 20.6505C19.4628 20.6481 19.3262 20.6178 19.1997 20.5614C19.0732 20.5051 18.9594 20.4238 18.865 20.3225L14.685 16.1425Z" fill="#040E33"/>
</svg>
