<svg width="18" height="18" viewBox="0 0 18 18" fill="none" xmlns="http://www.w3.org/2000/svg">
<path d="M15.1875 9.42752V9.00001V8.56689L16.2675 7.62189C16.4666 7.44642 16.5972 7.20622 16.6364 6.94374C16.6755 6.68126 16.6205 6.41341 16.4813 6.18751L15.1538 3.93752C15.0551 3.76666 14.9133 3.62475 14.7425 3.52602C14.5717 3.4273 14.3779 3.37522 14.1806 3.37502C14.0584 3.37408 13.9368 3.39308 13.8206 3.43127L12.4538 3.89252C12.2178 3.73569 11.9716 3.59476 11.7169 3.47064L11.43 2.05314C11.3786 1.79417 11.2377 1.56154 11.032 1.39597C10.8264 1.23041 10.569 1.14246 10.305 1.14752H7.67252C7.40854 1.14246 7.15119 1.23041 6.94551 1.39597C6.73984 1.56154 6.59896 1.79417 6.54752 2.05314L6.26064 3.47064C6.00411 3.59473 5.75607 3.73566 5.51815 3.89252L4.17939 3.40877C4.062 3.37818 3.94043 3.36678 3.8194 3.37502C3.62211 3.37522 3.42835 3.4273 3.25755 3.52602C3.08675 3.62475 2.94491 3.76666 2.84627 3.93752L1.51877 6.18751C1.38748 6.41307 1.33869 6.67726 1.38076 6.93483C1.42283 7.1924 1.55315 7.42734 1.74939 7.59939L2.81252 8.57251V9.43314L1.74939 10.3781C1.54761 10.5514 1.41373 10.7905 1.37151 11.0531C1.32929 11.3157 1.38146 11.5847 1.51877 11.8125L2.84627 14.0625C2.94491 14.2334 3.08675 14.3753 3.25755 14.474C3.42835 14.5727 3.62211 14.6248 3.8194 14.625C3.94165 14.626 4.06325 14.607 4.17939 14.5688L5.54627 14.1075C5.78226 14.2643 6.02843 14.4053 6.28314 14.5294L6.57002 15.9469C6.62146 16.2059 6.76234 16.4385 6.96801 16.6041C7.17369 16.7696 7.43104 16.8576 7.69502 16.8525H10.35C10.614 16.8576 10.8714 16.7696 11.077 16.6041C11.2827 16.4385 11.4236 16.2059 11.475 15.9469L11.7619 14.5294C12.0184 14.4053 12.2665 14.2644 12.5044 14.1075L13.8656 14.5688C13.9818 14.607 14.1034 14.626 14.2256 14.625C14.4229 14.6248 14.6167 14.5727 14.7875 14.474C14.9583 14.3753 15.1001 14.2334 15.1988 14.0625L16.4813 11.8125C16.6126 11.587 16.6614 11.3228 16.6193 11.0652C16.5772 10.8076 16.4469 10.5727 16.2506 10.4006L15.1875 9.42752ZM14.1806 13.5L12.2513 12.8475C11.7996 13.2301 11.2834 13.5291 10.7269 13.7306L10.3275 15.75H7.67252L7.27315 13.7531C6.72101 13.5459 6.20761 13.2474 5.7544 12.87L3.8194 13.5L2.49189 11.25L4.0219 9.90001C3.91789 9.31775 3.91789 8.72166 4.0219 8.13939L2.49189 6.75001L3.8194 4.50002L5.74877 5.15251C6.20042 4.76995 6.71661 4.47091 7.27315 4.26939L7.67252 2.25002H10.3275L10.7269 4.24689C11.279 4.45413 11.7924 4.75266 12.2456 5.13002L14.1806 4.50002L15.5081 6.75001L13.9781 8.10001C14.0822 8.68228 14.0822 9.27837 13.9781 9.86064L15.5081 11.25L14.1806 13.5Z" fill="#040E33"/>
<path d="M9 12.375C8.33249 12.375 7.67997 12.1771 7.12495 11.8062C6.56994 11.4354 6.13735 10.9083 5.88191 10.2916C5.62646 9.67486 5.55963 8.99626 5.68985 8.34157C5.82008 7.68689 6.14151 7.08552 6.61352 6.61352C7.08552 6.14151 7.68689 5.82008 8.34157 5.68985C8.99626 5.55963 9.67486 5.62646 10.2916 5.88191C10.9083 6.13735 11.4354 6.56994 11.8062 7.12495C12.1771 7.67997 12.375 8.33249 12.375 9C12.3795 9.44447 12.2953 9.88537 12.1273 10.2969C11.9593 10.7084 11.7108 11.0822 11.3965 11.3965C11.0822 11.7108 10.7084 11.9593 10.2969 12.1273C9.88537 12.2953 9.44447 12.3795 9 12.375ZM9 6.75C8.70263 6.74307 8.40695 6.79654 8.13084 6.90716C7.85472 7.01778 7.60391 7.18326 7.39359 7.39359C7.18326 7.60391 7.01778 7.85472 6.90716 8.13084C6.79654 8.40695 6.74307 8.70263 6.75 9C6.74307 9.29737 6.79654 9.59305 6.90716 9.86917C7.01778 10.1453 7.18326 10.3961 7.39359 10.6064C7.60391 10.8167 7.85472 10.9822 8.13084 11.0928C8.40695 11.2035 8.70263 11.2569 9 11.25C9.29737 11.2569 9.59305 11.2035 9.86917 11.0928C10.1453 10.9822 10.3961 10.8167 10.6064 10.6064C10.8167 10.3961 10.9822 10.1453 11.0928 9.86917C11.2035 9.59305 11.2569 9.29737 11.25 9C11.2569 8.70263 11.2035 8.40695 11.0928 8.13084C10.9822 7.85472 10.8167 7.60391 10.6064 7.39359C10.3961 7.18326 10.1453 7.01778 9.86917 6.90716C9.59305 6.79654 9.29737 6.74307 9 6.75Z" fill="#040E33"/>
</svg>
