<svg width="17" height="17" viewBox="0 0 17 17" fill="none" xmlns="http://www.w3.org/2000/svg">
<path d="M14.7194 8.87559L11.9311 11.6647C11.8313 11.7633 11.6965 11.8184 11.5562 11.818C11.4159 11.8176 11.2814 11.7617 11.1821 11.6625C11.0829 11.5633 11.0269 11.4288 11.0265 11.2885C11.026 11.1481 11.0811 11.0133 11.1798 10.9135L13.0614 9.03125H6.90625C6.76535 9.03125 6.63023 8.97528 6.5306 8.87565C6.43097 8.77602 6.375 8.6409 6.375 8.5C6.375 8.3591 6.43097 8.22398 6.5306 8.12435C6.63023 8.02472 6.76535 7.96875 6.90625 7.96875H13.0614L11.1798 6.08653C11.0811 5.98668 11.026 5.85187 11.0265 5.71154C11.0269 5.5712 11.0829 5.43674 11.1821 5.33752C11.2814 5.2383 11.4159 5.18238 11.5562 5.18197C11.6965 5.18156 11.8313 5.2367 11.9311 5.33534L14.7194 8.12441C14.819 8.22403 14.875 8.35913 14.875 8.5C14.875 8.64087 14.819 8.77597 14.7194 8.87559ZM6.90625 13.8125H3.1875V3.1875H6.90625C7.04715 3.1875 7.18227 3.13153 7.2819 3.0319C7.38153 2.93227 7.4375 2.79715 7.4375 2.65625C7.4375 2.51535 7.38153 2.38023 7.2819 2.2806C7.18227 2.18097 7.04715 2.125 6.90625 2.125H3.1875C2.9058 2.12532 2.63574 2.23736 2.43655 2.43655C2.23736 2.63574 2.12532 2.9058 2.125 3.1875V13.8125C2.12532 14.0942 2.23736 14.3643 2.43655 14.5635C2.63574 14.7626 2.9058 14.8747 3.1875 14.875H6.90625C7.04715 14.875 7.18227 14.819 7.2819 14.7194C7.38153 14.6198 7.4375 14.4846 7.4375 14.3438C7.4375 14.2029 7.38153 14.0677 7.2819 13.9681C7.18227 13.8685 7.04715 13.8125 6.90625 13.8125Z" fill="#040E33"/>
</svg>
